<svg xmlns="http://www.w3.org/2000/svg" viewBox="0 0 220 200">
  <defs>
    <linearGradient id="brainGradient" x1="0%" y1="0%" x2="0%" y2="100%">
      <stop offset="0%" stop-color="#ffced6"/>
      <stop offset="100%" stop-color="#f7aaba"/>
    </linearGradient>
  </defs>
  <rect width="220" height="200" fill="none"/>
  <g fill="url(#brainGradient)" stroke="#e48fa0" stroke-width="4" stroke-linecap="round" stroke-linejoin="round">
    <path d="M60 120c-30-20-30-60-8-80 18-17 46-18 62 2 14-18 44-20 62-2 22 21 22 60-8 80z"/>
    <path d="M86 115c-12-8-13-25-1-34 8-7 18-7 26 1 8-8 18-8 26-1 12 10 11 26-1 34z"/>
    <path d="M68 160l-6 24" stroke-linecap="round"/>
    <path d="M150 160l6 24" stroke-linecap="round"/>
    <path d="M192 80h16" stroke-linecap="round"/>
    <path d="M185 60h22" stroke-linecap="round"/>
    <path d="M186 100h22" stroke-linecap="round"/>
  </g>
  <g fill="#fff0f4" stroke="#e48fa0" stroke-width="4" stroke-linecap="round" stroke-linejoin="round">
    <circle cx="85" cy="95" r="8"/>
    <circle cx="135" cy="95" r="8"/>
  </g>
  <path d="M98 120c8 8 20 8 28 0" stroke="#d6728a" stroke-width="6" stroke-linecap="round"/>
  <path d="M60 120c-8 12-24 12-38 8" fill="none" stroke="#e48fa0" stroke-width="4" stroke-linecap="round"/>
  <path d="M154 39c12-12 34-10 44 0" fill="none" stroke="#f4d05e" stroke-width="6" stroke-linecap="round"/>
  <circle cx="198" cy="38" r="14" fill="#ffe37d" stroke="#f4d05e" stroke-width="5"/>
</svg>
